<?xml version="1.0" encoding="UTF-8"?>
<!DOCTYPE svg PUBLIC "-//W3C//DTD SVG 1.1//EN" "http://www.w3.org/Graphics/SVG/1.1/DTD/svg11.dtd">
<!-- Creator: CorelDRAW SE -->
<svg xmlns="http://www.w3.org/2000/svg" xml:space="preserve" width="282.312mm" height="77.2014mm" version="1.1" style="shape-rendering:geometricPrecision; text-rendering:geometricPrecision; image-rendering:optimizeQuality; fill-rule:evenodd; clip-rule:evenodd"
viewBox="0 0 922728.87 252331.06"
 xmlns:xlink="http://www.w3.org/1999/xlink">
 <defs>
  <style type="text/css">
   <![CDATA[
    .str0 {stroke:#434242;stroke-width:249.06;stroke-miterlimit:22.9256}
    .fil2 {fill:#FEFEFE}
    .fil0 {fill:#222224}
    .fil1 {fill:#FEFEFE;fill-rule:nonzero}
   ]]>
  </style>
 </defs>
 <g id="Warstwa_x0020_1">
  <metadata id="CorelCorpID_0Corel-Layer"/>
  <polygon class="fil0 str0" points="124.53,124.53 922604.34,124.53 922604.34,252206.53 124.53,252206.53 "/>
  <g id="_875998552">
   <g>
    <path class="fil1" d="M209277.69 169684.33l5603.81 0c2902.74,0 12145.66,-976.95 13529.21,-2955.68 1383.55,-1979.06 3165.19,-6541.86 5406.72,-13687.4 757.63,-2754.67 1681.3,-4446.11 2771.34,-5020.71 1052.78,-603.69 2900.45,-889.03 5505.1,-889.03 2867.76,0 4713.14,199.05 5538.11,630.16 823.33,429.15 1219.47,1207.05 1219.47,2325.85 0,773.65 -164.4,2036.26 -492.89,3785.22l-3364.24 20144.94c-396.14,2066.99 -892.95,3442.36 -1516.9,4132.01 -593.23,656.64 -1847.34,1003.75 -3725.74,1003.75l-70726.92 0c-2703.36,0 -4056.18,-1463.62 -4056.18,-4362.11 0,-2237.27 160.16,-3676.38 527.53,-4331.06 357.24,-634.41 1118.8,-1141.35 2274.53,-1465.59 3653.83,-1022.38 5505.1,-3959.76 5505.1,-8836.66l0 -99828.14c0,-794.24 -176.5,-1504.48 -523.28,-2128.43l-126455.12 0 0 -14715.67 122649.3 0 78.12 0 29928.14 0 14676.45 0c1681.3,0 2818.41,359.21 3427.98,1063.24 609.9,700.11 925.96,2580.14 925.96,5679.63 0,1865.97 -193.17,3103.75 -628.2,3758.75 -420.65,636.05 -1512.98,1214.89 -3230.89,1722.16 -3226.97,954.4 -4846.5,2814.16 -4846.5,5538.11l0 108436.65z"/>
    <path class="fil1" d="M116650.66 73996.7l34318.69 0c2307.22,0 3824.12,221.6 4548.74,689.65 693.9,445.49 1055.06,1601.23 1055.06,3469.16 0,1689.48 -229.77,2869.72 -724.62,3536.82 -496.48,667.1 -1713.99,1311.64 -3627.03,1913.04 -1713.99,511.19 -2801.74,1090.04 -3263.58,1689.48 -459.87,623.95 -691.94,1600.9 -691.94,3003.08l0 77375.66c0,1112.26 199.05,1935.59 593.23,2469.33 396.14,510.86 1481.93,1067.16 3263.9,1623.45 2440.57,778.22 3657.75,1845.38 3657.75,3202.13 0,3382.87 -164.08,5271.4 -492.56,5626.68 -297.76,379.47 -1451.2,558.26 -3362.28,558.26l-43188.36 0c-1878.07,0 -2802.07,-1067.48 -2802.07,-3204.42 0,-1822.5 98.71,-3179.58 295.8,-4070.24 197.09,-889.03 1385.51,-1601.23 3561.33,-2180.07 2438.61,-642.58 3660.04,-1800.28 3660.04,-3446.28l0 -54890.82 -17474.59 44304.87 -10647.07 0 -17174.87 -42925.57 0 53312.14c0,1734.58 1151.48,3023.67 3458.7,3847 2836.71,956.36 4255.23,2647.79 4255.23,5070.06 0,2781.15 -1418.52,4183.32 -4222.22,4183.32l-20900.61 0c-2372.91,0 -3561.33,-1334.19 -3561.33,-3982.31 0,-1867.94 989.37,-3292.34 2968.1,-4292.17 1484.22,-823 2405.93,-1490.1 2802.07,-1978.74 363.13,-513.15 560.22,-1379.3 560.22,-2647.79l0 -75286.12c0,-2091.83 -264.75,-3692.73 -823,-4780.8 -529.49,-1112.59 -1713.99,-2023.84 -3495.64,-2715.78 -1944.09,-687.36 -2900.45,-1399.89 -2900.45,-2132.68l98.38 -2804.03c65.7,-2023.84 262.79,-3290.38 626.24,-3780.98 361.17,-510.86 1221.1,-755.35 2571.97,-755.35l35737.21 0 15526.25 40234.63 15793.28 -40234.63z"/>
   </g>
   <g>
    <path class="fil1" d="M272214.85 99849.05l0 -40947.82 8978.18 0 0 18139.4 18091.68 -18139.4 12032.57 0 -16728.72 15946.25 17594.22 25001.57 -11577.28 0 -12199.27 -19224.86 -7213.2 6842.56 0 12382.3 -8978.18 0zm88459.06 0l-9669.14 0 -3828.69 -9321.7 -17780.52 0 -3685.86 9321.7 -9492.97 0 17212.78 -40947.82 9485.12 0 17759.27 40947.82zm-16407.76 -16241.39l-6161.41 -15155.6 -5985.24 15155.6 12146.64 0zm24993.4 16241.39l0 -40947.82 13444.88 0 7947.63 27927.51 7852.84 -27927.51 13477.24 0 0 40947.82 -8297.03 0 -32.03 -32235.69 -8739.58 32235.69 -8627.15 0 -8701.01 -32235.69 -30.4 32235.69 -8295.4 0zm55320.95 0l0 -40947.82 8978.51 0 0 40947.82 -8978.51 0zm21440.56 0l0 -40947.82 32817.48 0 0 6919.69 -23838.97 0 0 9093.89 22166.82 0 0 6919.69 -22166.82 0 0 11094.52 24704.79 0 0 6920.02 -33683.3 0zm45230.18 0l0 -40947.82 8689.58 0 18243.66 27441.81 0 -27441.81 8297.03 0 0 40947.82 -8967.07 0 -17966.17 -26917.55 0 26917.55 -8297.03 0zm48335.56 0l0 -40947.82 8978.18 0 0 40947.82 -8978.18 0zm61378.09 0l-9669.46 0 -3828.37 -9321.7 -17780.52 0 -3685.86 9321.7 -9492.97 0 17212.78 -40947.82 9484.8 0 17759.6 40947.82zm-16407.76 -16241.39l-6161.41 -15155.6 -5985.24 15155.6 12146.64 0zm25116.94 16241.39l0 -40947.82 18852.91 0c4736.02,0 8184.6,371.95 10329.7,1106.38 2158.18,734.1 3870.53,2039.2 5160.93,3916.62 1289.09,1887.22 1940.17,4032.32 1940.17,6453.28 0,3078.25 -970.08,5614.59 -2921.37,7615.55 -1950.95,2002.6 -4861.21,3259.33 -8739.26,3783.59 1928.73,1039.05 3517.54,2183.67 4766.42,3431.25 1260.33,1248.89 2951.76,3469.49 5077.58,6653.64l5406.39 7987.51 -10701.98 0 -6416.35 -8939.94c-2302.32,-3174.67 -3881.64,-5176.94 -4737.66,-6005.83 -846.54,-819.41 -1744.39,-1391.72 -2693.55,-1696.34 -960.28,-304.62 -2467.37,-456.93 -4530.76,-456.93l-1816.62 0 0 17099.04 -8976.55 0zm8976.55 -23619.65l6626.51 0c4293.47,0 6966.11,-171.6 8038.82,-504.98 1062.91,-333.38 1909.44,-915.5 2507.25,-1734.58 607.94,-819.41 909.29,-1848.65 909.29,-3078.58 0,-1381.91 -403.98,-2488.29 -1197.57,-3345.94 -795.55,-848.17 -1920.88,-1381.91 -3365.55,-1599.92 -732.47,-96.42 -2908.29,-144.47 -6531.73,-144.47l-6987.02 0 0 10408.47zm37314.58 10352.58l8731.41 -801.76c525.9,2698.13 1579.33,4670.33 3177.94,5938.5 1598.29,1268.17 3756.46,1896.7 6468.97,1896.7 2870.05,0 5037.7,-562.83 6493.48,-1686.53 1454.15,-1125.66 2186.94,-2440.25 2186.94,-3947.34 0,-971.72 -309.52,-1790.8 -918.77,-2477.18 -609.24,-676.57 -1681.96,-1268.17 -3209.97,-1763.67 -1041.99,-342.86 -3416.54,-934.46 -7131.16,-1792.43 -4776.23,-1104.42 -8130.34,-2459.2 -10060.7,-4068.93 -2714.14,-2259.17 -4064.35,-5013.52 -4064.35,-8265 0,-2085.94 638.33,-4049.97 1906.5,-5871.17 1280.92,-1819.56 3118.45,-3201.8 5521.77,-4155.54 2404.62,-952.43 5295.59,-1428.65 8700.69,-1428.65 5541.05,0 9720.78,1133.51 12516.96,3411.64 2807.3,2278.46 4272.55,5308.66 4415.39,9111.54l-8976.87 286.97c-381.43,-2116.34 -1195.94,-3631.28 -2446.46,-4556.58 -1247.25,-924.98 -3126.3,-1391.39 -5624.4,-1391.39 -2577.85,0 -4601.36,495.17 -6057.14,1486.18 -939.36,639.64 -1412.31,1487.81 -1412.31,2555.62 0,971.39 443.86,1800.28 1330.6,2486.66 1125.34,886.41 3859.09,1801.91 8203.88,2754.35 4344.79,944.26 7554.76,1935.27 9627.63,2945.23 2085.94,1021.4 3714.95,2403.31 4891.6,4165.35 1176.98,1763.67 1763.67,3937.54 1763.67,6520.61 0,2343.83 -700.43,4546.78 -2113.07,6595.79 -1415.58,2049.01 -3407.06,3573.75 -5984.91,4564.43 -2581.44,1002.12 -5802.53,1497.62 -9650.18,1497.62 -5603.48,0 -9906.76,-1191.36 -12909.51,-3585.19 -3003.08,-2382.39 -4788.97,-5861.36 -5377.63,-10425.79zm57551.36 13267.08l0 -34028.12 -13126.21 0 0 -6919.69 35167.84 0 0 6919.69 -13063.45 0 0 34028.12 -8978.18 0zm37869.24 0l-10421.21 -40947.82 9225.28 0 6594.15 28127.87 8091.77 -28127.87 10669.95 0 7738.77 28604.08 6748.43 -28604.08 9008.58 0 -10681.06 40947.82 -9585.79 0 -8741.22 -30614.52 -8802.01 30614.52 -9845.64 0zm54426.37 -20225.34c0,-4175.15 679.84,-7682.88 2031.36,-10523.84 1002.12,-2087.58 2384.03,-3964.99 4128.41,-5622.76 1744.39,-1659.41 3653.83,-2887.7 5727.03,-3698.94 2767.09,-1077.29 5956.15,-1619.2 9566.83,-1619.2 6542.84,0 11764.89,1877.41 15695.88,5622.76 3921.85,3754.83 5880.97,8968.7 5880.97,15651.11 0,6624.88 -1948.01,11809.66 -5839.14,15545.21 -3891.12,3745.35 -9101.73,5614.92 -15612.86,5614.92 -6595.79,0 -11848.23,-1859.76 -15737.72,-5585.83 -3892.76,-3718.22 -5840.77,-8845.48 -5840.77,-15383.42zm9225.28 -277.49c0,4643.2 1165.54,8159.1 3487.14,10560.78 2323.23,2393.83 5273.36,3594.67 8845.48,3594.67 3579.96,0 6510.81,-1191.36 8811.49,-3565.91 2291.2,-2382.39 3437.46,-5946.34 3437.46,-10703.28 0,-4699.42 -1114.22,-8207.15 -3354.11,-10512.73 -2230.08,-2316.7 -5191.32,-3469.49 -8894.84,-3469.49 -3694.03,0 -6679.46,1172.08 -8936.67,3506.42 -2260.81,2345.46 -3395.95,5872.8 -3395.95,10589.54z"/>
    <path class="fil1" d="M272214.85 163737.99l0 -40947.82 13445.21 0 7947.3 27927.51 7852.84 -27927.51 13477.24 0 0 40947.82 -8298.67 0 -30.4 -32235.69 -8739.58 32235.69 -8627.15 0 -8701.01 -32235.69 -30.4 32235.69 -8295.4 0zm95566.37 0l-9669.14 0 -3828.69 -9321.7 -17780.52 0 -3685.86 9321.7 -9492.97 0 17212.78 -40947.82 9485.12 0 17759.27 40947.82zm-16407.76 -16241.39l-6161.41 -15155.6 -5985.24 15155.6 12146.64 0zm30492.61 16241.39l0 -34028.12 -13125.88 0 0 -6919.69 35167.84 0 0 6919.69 -13065.09 0 0 34028.12 -8976.87 0zm31781.7 0l0 -40947.82 32815.84 0 0 6919.69 -23838.97 0 0 9093.89 22166.82 0 0 6919.69 -22166.82 0 0 11094.52 24704.79 0 0 6920.02 -33681.66 0zm45228.54 -40947.82l8978.18 0 0 22189.37c0,3527.34 112.44,5805.47 330.44,6844.52 381.43,1676.73 1277.65,3030.21 2703.03,4040.17 1434.86,1021.4 3386.14,1526.38 5863.32,1526.38 2505.62,0 4403.95,-477.85 5683.56,-1439.76 1280.92,-963.55 2044.11,-2135.62 2302.32,-3536.82 257.88,-1401.2 392.54,-3716.59 392.54,-6958.26l0 -22665.59 8976.87 0 0 21532.08c0,4918.73 -237.29,8398.03 -721.35,10427.75 -484.39,2029.72 -1372.43,3745.02 -2672.63,5146.55 -1290.72,1401.2 -3024,2507.25 -5191.65,3336.14 -2175.5,828.89 -5003.71,1249.21 -8503.6,1249.21 -4219.93,0 -7418.46,-449.09 -9597.23,-1353.15 -2177.13,-906.02 -3900.93,-2078.1 -5169.1,-3527.34 -1269.8,-1449.24 -2095.42,-2954.7 -2497.77,-4546.78 -588.33,-2344.15 -876.93,-5813.64 -876.93,-10398.99l0 -21865.46zm46291.45 27680.74l8731.41 -801.76c525.9,2698.13 1579,4670.33 3179.25,5938.5 1598.29,1268.17 3754.83,1896.7 6469.3,1896.7 2868.09,0 5037.38,-562.83 6491.52,-1686.53 1454.15,-1125.66 2186.94,-2440.25 2186.94,-3947.34 0,-971.72 -309.52,-1790.8 -918.77,-2477.18 -609.24,-676.57 -1681.96,-1268.17 -3209.65,-1763.67 -1040.68,-342.86 -3415.23,-934.46 -7129.86,-1792.43 -4777.86,-1104.42 -8130.34,-2459.2 -10060.7,-4068.93 -2715.78,-2259.17 -4065.66,-5013.52 -4065.66,-8265 0,-2085.94 638.01,-4049.97 1907.81,-5871.17 1280.92,-1819.56 3116.82,-3201.8 5521.77,-4155.54 2403.31,-952.43 5293.95,-1428.65 8699.38,-1428.65 5540.72,0 9720.45,1133.51 12516.64,3411.64 2807.3,2278.46 4272.88,5308.66 4417.02,9111.54l-8978.18 286.97c-381.76,-2116.34 -1196.26,-3631.28 -2445.15,-4556.58 -1248.89,-924.98 -3126.3,-1391.72 -5624.4,-1391.72 -2579.48,0 -4601.36,495.5 -6058.78,1486.5 -939.36,639.64 -1412.31,1487.81 -1412.31,2555.62 0,971.39 444.19,1800.28 1330.6,2486.66 1125.66,886.41 3859.09,1801.91 8203.88,2754.35 4345.11,944.26 7554.76,1935.27 9629.26,2945.23 2084.31,1021.4 3714.95,2403.31 4891.6,4165.35 1176.98,1763.67 1763.67,3937.54 1763.67,6520.61 0,2343.83 -702.07,4546.78 -2114.71,6595.79 -1413.94,2049.01 -3405.43,3573.75 -5984.91,4564.43 -2581.44,1002.12 -5800.57,1497.62 -9650.18,1497.62 -5603.48,0 -9906.76,-1191.36 -12909.51,-3585.19 -3003.08,-2382.39 -4788.97,-5861.36 -5377.3,-10425.79zm43682.55 13267.08l0 -7434.48 23363.08 -26593.64 -20699.92 0 0 -6919.69 32443.89 0 0 6405.24 -24272.04 27622.56 25201.92 0 0 6920.02 -36036.93 0zm63101.89 0l0 -40604.63 8976.87 0 0 33684.61 22227.61 0 0 6920.02 -31204.48 0zm41502.48 0l0 -40947.82 32815.84 0 0 6919.69 -23839.3 0 0 9093.89 22167.14 0 0 6919.69 -22167.14 0 0 11094.52 24705.12 0 0 6920.02 -33681.66 0zm45351.76 0l0 -40947.82 8978.18 0 0 18139.4 18090.04 -18139.4 12034.21 0 -16728.72 15946.25 17594.22 25001.57 -11578.58 0 -12197.96 -19224.86 -7213.2 6842.56 0 12382.3 -8978.18 0zm46167.9 -13267.08l8731.41 -801.76c525.9,2698.13 1579.33,4670.33 3179.25,5938.5 1598.61,1268.17 3754.83,1896.7 6469.3,1896.7 2868.42,0 5037.38,-562.83 6491.52,-1686.53 1454.47,-1125.66 2186.94,-2440.25 2186.94,-3947.34 0,-971.72 -309.2,-1790.8 -918.44,-2477.18 -609.24,-676.57 -1681.96,-1268.17 -3209.97,-1763.67 -1040.36,-342.86 -3414.91,-934.46 -7129.86,-1792.43 -4777.53,-1104.42 -8130.01,-2459.2 -10060.37,-4068.93 -2716.11,-2259.17 -4065.99,-5013.52 -4065.99,-8265 0,-2085.94 638.01,-4049.97 1907.81,-5871.17 1281.24,-1819.56 3116.82,-3201.8 5521.77,-4155.54 2403.31,-952.43 5293.95,-1428.65 8699.38,-1428.65 5541.05,0 9720.78,1133.51 12516.96,3411.64 2807.3,2278.46 4272.55,5308.66 4417.02,9111.54l-8978.51 286.97c-381.43,-2116.34 -1195.94,-3631.28 -2444.82,-4556.58 -1249.21,-924.98 -3126.63,-1391.72 -5624.4,-1391.72 -2579.81,0 -4601.36,495.5 -6058.78,1486.5 -939.69,639.64 -1412.64,1487.81 -1412.64,2555.62 0,971.39 444.19,1800.28 1330.92,2486.66 1125.34,886.41 3859.09,1801.91 8203.88,2754.35 4344.79,944.26 7554.76,1935.27 9629.26,2945.23 2084.31,1021.4 3714.63,2403.31 4891.6,4165.35 1176.65,1763.67 1763.67,3937.54 1763.67,6520.61 0,2343.83 -702.4,4546.78 -2114.71,6595.79 -1414.27,2049.01 -3405.43,3573.75 -5985.24,4564.43 -2581.12,1002.12 -5800.57,1497.62 -9649.85,1497.62 -5603.48,0 -9906.76,-1191.36 -12909.83,-3585.19 -3002.75,-2382.39 -4788.97,-5861.36 -5377.3,-10425.79zm87519.7 13267.08l-9667.83 0 -3830.33 -9321.7 -17780.19 0 -3684.23 9321.7 -9494.6 0 17212.78 -40947.82 9484.8 0 17759.6 40947.82zm-16406.45 -16241.39l-6163.04 -15155.6 -5984.91 15155.6 12147.95 0zm25115.31 16241.39l0 -40947.82 8689.9 0 18243.66 27441.81 0 -27441.81 8297.03 0 0 40947.82 -8967.4 0 -17966.17 -26917.55 0 26917.55 -8297.03 0z"/>
   </g>
   <polygon class="fil2" points="45171.67,198948.97 877557.2,198948.97 877557.2,208847.56 45171.67,208847.56 "/>
  </g>
 </g>
</svg>
